<svg id="Layer_1" data-name="Layer 1" xmlns="http://www.w3.org/2000/svg" xmlns:xlink="http://www.w3.org/1999/xlink" viewBox="0 0 1000 1000"><defs><style>.cls-1{fill:none;}.cls-2{fill:#0b2f42;}.cls-3{fill:#07222d;}.cls-4{fill:#fff;}.cls-5{fill:#92ca65;}.cls-6{clip-path:url(#clip-path);}.cls-7{fill:#fa073a;}.cls-8{fill:#01151d;}.cls-9{fill:#e3dce6;}.cls-10{fill:#a8a4ab;}.cls-11{clip-path:url(#clip-path-2);}.cls-12{fill:#7c101f;}.cls-13{fill:#bcb4c2;}.cls-14{fill:#1f4863;}.cls-15{fill:#f8f0e0;}.cls-16{fill:#c2bba9;}.cls-17{fill:#726c54;}.cls-18{fill:#3b3c39;}.cls-19{fill:#78776e;}.cls-20{fill:#3e3d38;}.cls-21{fill:#797a70;}.cls-22{fill:#5c4a32;}.cls-23{fill:#061e26;}.cls-24{fill:#031927;}.cls-25{fill:#7aaa50;}.cls-26{fill:#060500;}.cls-27{clip-path:url(#clip-path-3);}</style><clipPath id="clip-path"><path class="cls-1" d="M909.76,692.59c-46.88,21.42-88.27,13.9-117.67.21a141.67,141.67,0,0,1-34.51-22.48c-23.5-21.18-16-52.41-16-52.41s52.66-86.47,86.79-106.41c5.64-3.3,10.77-4.78,15.08-3.76,0,0,49.5.71,84.08,51.66S980.31,660.35,909.76,692.59Z"/></clipPath><clipPath id="clip-path-2"><path class="cls-1" d="M260.41,671.51c-29.88,51.84-157.55,90.23-193.06,64C60.52,730.43,54.91,722.66,50.7,713a94.42,94.42,0,0,1-4.89-14.58c-10.68-42.3-.24-106.52,42.09-151.47,58.88-62.5,96.43-49.66,96.43-49.66s2.23,1.73,6,4.69c10.88,8.51,34.57,27.17,54.66,43.63,16.63,13.62,30.79,25.72,33.12,29.29C284.22,584.24,290.29,619.67,260.41,671.51Z"/></clipPath><clipPath id="clip-path-3"><path class="cls-1" d="M587.27,410.24c-36,12.47-70,18.84-101.62,20.25a282.59,282.59,0,0,1-79-7.31C314.24,401,251.91,333.24,231.6,264.5c0,0-10.33-54,20-77,0,0-45.93-68.93-7.45-120.88,35.09-47.37,90.22-55.42,140-19.28A161.33,161.33,0,0,1,398.36,59s70.53-43.36,174.41,7.58a170.55,170.55,0,0,1,26.62-16.09c30.79-15.21,82.89-30.52,127,8.06,67.39,59,4.65,127.59,5.37,138.21S777.73,344.32,587.27,410.24Z"/></clipPath></defs><path d="M682.36,1038c-2,0-3-2.44-3.85-4.41-.12-.27-.26-.6-.38-.85-1.09-.11-3.12-.88-3.69-2a1.63,1.63,0,0,1,.17-1.74c.17-.2.84-1.15,1.61-2.25,2.1-3,5.61-8,7.48-10.2s3.78-10,4.32-12.69l.14-.72,12.38-3.86-.11,1.79c0,.05-.33,5-1.41,13.62S685.29,1038,682.36,1038Z"/><path d="M316.23,1079.36c-19,0-54.85-20.56-57.41-23.75-4.59-5.75-.64-24.69,2.12-35.47,5-19.73,6-44.16,6.44-65.51l.11-4.77c.61-27.37,2.48-110.66.92-125.24,0-.24-.05-.45-.07-.64a86,86,0,0,1-.79-18.26c.64-9.72,3-20.22,7.32-33,3-8.73,7-22.07,11.36-36.18,5.71-18.68,11.62-38,15.14-47.11a42.43,42.43,0,0,1,2-4.49c2.4-4.45.67-10.31-1.95-19.18-1.44-4.88-3.07-10.42-4.36-17-3.68-18.67,10.33-50.26,12.73-55.48.1-2.35.41-10,.8-19.26.66-15.52,1.55-35.48,2.05-42.38.89-12.35,4.73-16.15,5.89-17l.21-.16.22-.13c1.32-.72,32.49-17.87,58.37-27,5-1.77,13.85-2.63,27-2.63,48,0,139,11.88,146.38,12.86A316.38,316.38,0,0,1,586,495.41c10.86,0,19.94.77,27,2.28,8.1,1.75,16.69,9.63,26.27,24.1,15.59,23.59,28.68,57.3,31.33,65,4,11.81,12.86,40,14.23,51.93.47,4,1,7.88,1.6,11.62,1,6.6,1.81,12.3,1.81,17v.86c0,7,0,20.09,9,29.8,7.48,8,10.62,14.47,14.26,21.91,1.66,3.42,3.38,6.94,5.7,11,7.94,13.88,15.44,43.24,16.35,51.41a34.11,34.11,0,0,0,2.15,7.29c.26.69.52,1.4.8,2.12.61,1.62,1.24,3.28,1.88,5.07,2.48,7,5.19,16.44,4.15,27.4,0,.23,0,.46-.07.7a48.62,48.62,0,0,1-1.05,6c-1.77,7.41-5,14.29-8.08,21-3.69,7.91-7.18,15.39-6.77,21.29.54,7.76,3.56,15.93,6.48,23.82a113.6,113.6,0,0,1,4.66,14.42,241.48,241.48,0,0,0,12,40.07A146.64,146.64,0,0,0,755.84,965,61.55,61.55,0,0,1,762,981.41c1.24,5.11,3.21,11,5.11,16.65,3.19,9.54,6.21,18.54,6.21,24.86,0,13.17-5.42,21.68-13.81,21.68a13.6,13.6,0,0,1-2.79-.3c-6.22-1.31-12.16-9.36-21.2-22.47-4.39-6.36-8.92-12.94-12.2-15.7-.39-.33-2.86-2-12.9-2a144.11,144.11,0,0,0-15,.91c-22.53,2.43-50.3,9.14-70.73,17.11-29.51,11.52-50.44,34.12-60.5,45a62.07,62.07,0,0,1-6.37,6.4,9,9,0,0,1-5.44,2.08c-6.61,0-9.65-8.38-13.86-22.18-1.68-5.5-3.33-9.81-4.78-13.61-3-7.82-5.33-14-5.67-24.26a78,78,0,0,1,1.24-14.66c1.22-8.08,2.28-15.06-1.84-24.11-4.56-10-5.38-21.5-6.33-34.75-.57-8-1.22-17.13-2.83-26.93-3.8-23.24-1.25-28.36,1.46-33.78.4-.8.78-1.55,1.13-2.38.62-1.45.81-2.55.55-3.08s-1.86-2-8.29-3.54a52.35,52.35,0,0,0-11.82-1.55c-.93,0-1.82,0-2.64.12-3.22.3-5.5,1.2-6.25,2.49-.53.91-.46,1.62.56,5.38,1.41,5.16,3.77,13.81,3.21,30.73-.93,28.31-10.17,70.62-13.69,82.68-2.15,7.37-1.66,16.39-1.18,25.11.2,3.75.39,7.29.39,10.76,0,12.47-4,27.21-6.67,37-1.1,4-3.34,9.39-10,9.39a28.76,28.76,0,0,1-4.51-.49,32.5,32.5,0,0,0-5.38-.57c-8.86,0-12.76-10-17.7-22.6-1.49-3.81-3-7.76-4.84-11.83-1.89-4.25-4.64-6-9.48-6-4.62,0-10.31,1.64-16.34,3.37a132.43,132.43,0,0,1-13.5,3.36c-1.31.22-2.5.38-3.63.5-17.14,1.76-23.81,6.73-38.51,20.51-2,1.86-3.67,3.47-5.12,4.86-10,9.59-10.73,10-25.06,13.34A21,21,0,0,1,316.23,1079.36Z"/><path class="cls-2" d="M769.59,1022.92c0,9.35-3.26,19.62-12.14,17.76s-22.9-29.9-31.78-37.38c-3.69-3.12-15.43-3.56-30.64-1.92-21.28,2.28-49.34,8.62-71.68,17.34-38.31,15-62.14,47.66-67.75,51.86s-8.41-1.4-13.55-18.22-9.81-22.43-10.28-36.91,6.08-24.76-.93-40.18-4.67-35-8.88-60.74-.47-27.57,2.34-34.12-.47-9.33-10.28-11.67a50.72,50.72,0,0,0-15.66-1.51c-4.18.38-7.57,1.68-9.11,4.31-3.26,5.61,4.21,9.34,3.28,37.84S482.25,979.94,479,991.15s-.94,25.23-.94,36.91-3.74,25.7-6.54,36-7.94,5.6-16.35,5.6-11.68-15.41-19.16-32.23c-7-15.79-26-4.42-43.33-1.41-1.14.19-2.27.35-3.39.47-18.22,1.87-25.7,7.48-40.65,21.49s-12.61,13.55-28.5,17.29-56.54-19.62-58.41-22-2.33-12.16,2.81-32.25,6.07-44.38,6.56-66.34c.47-21.55,2.7-114.69,1-130.49,0-.29-.06-.56-.1-.81a81.85,81.85,0,0,1-.74-17.45c.57-8.71,2.62-18.83,7.12-32.07,7-20.55,20.39-67.45,26.45-83.15a39.54,39.54,0,0,1,1.77-4.07c4.7-8.72-2.2-19.62-5.94-38.62s12.77-53.89,12.77-53.89.35-8.84.82-20c.66-15.51,1.56-35.5,2.05-42.27.83-11.64,4.42-14.34,4.42-14.34s31.92-17.62,57.81-26.73,172.1,10.47,172.1,10.47,38.62-4.95,61.61,0c7.84,1.69,16.18,10.77,24,22.52,15,22.75,27.95,55.51,30.92,64.19,4.52,13.18,12.78,40.09,14.06,51.15s3.38,21.18,3.38,28.19-.46,22,10,33.18,12,19.15,19.46,32.23,15,41.58,15.89,50a36.91,36.91,0,0,0,2.35,8.18c.82,2.18,1.75,4.56,2.66,7.13,2.55,7.18,4.91,15.83,4,25.81l-.06.61a47.56,47.56,0,0,1-1,5.56c-3.89,16.32-15.77,31.32-14.94,43.36.94,13.55,8.88,28,11.21,38.78a245.58,245.58,0,0,0,12.15,40.65c6.54,16.35,8.88,15.89,12.15,29.44S769.59,1013.58,769.59,1022.92Z"/><path class="cls-3" d="M635.62,990.29s-75.81-2.72-102,23.44c0,0,1.25,4,25.54,1.87s36.1-11.79,51.22-14.62A63.67,63.67,0,0,0,635.62,990.29Z"/><path class="cls-3" d="M769.59,1022.92c0,9.35-3.26,19.62-12.14,17.76s-22.9-29.9-31.78-37.38c-3.69-3.12-15.43-3.56-30.64-1.92-12.29-16.6-43.18-19.57-43.18-19.57s15.42-3.74,27.56-24.3-4.66-42-4.66-42c-15.42,22.43-34.58,21.33-34.58,21.33C657,924,665.87,908,653.26,885.22s-15-39.85-7-47.6c5.11-5,56.57-10.12,92.54-13.13a47.56,47.56,0,0,1-1,5.56c-3.89,16.32-15.77,31.32-14.94,43.36.94,13.55,8.88,28,11.21,38.78a245.58,245.58,0,0,0,12.15,40.65c6.54,16.35,8.88,15.89,12.15,29.44S769.59,1013.58,769.59,1022.92Z"/><path class="cls-3" d="M732.23,790.94c-31.6-10.49-56.26-13.85-91.43,11-42.37,29.91-98,30.61-98,30.61,34.06-4.28,38.9-51,38.9-51,1.48-49.94,17.15-66.8,30-72.17-60.71,2.94-73-37.81-73-37.81,42.47,5.4,72.8-25,72.8-25-15,6.93-53.18-4.43-80.9-.84S499.6,635,499.6,635s32.79-51.71,44-63.86c8.19-8.87,63.4-34.24,92.58-47.28,15,22.75,27.95,55.51,30.92,64.19,4.52,13.18,12.78,40.09,14.06,51.15s3.38,21.18,3.38,28.19-.46,22,10,33.18,12,19.15,19.46,32.23,15,41.58,15.89,50A36.91,36.91,0,0,0,732.23,790.94Z"/><path class="cls-3" d="M382.58,706.45c.56.73,39.51,51.33,33.32,63.08,0,0-82.27-36.66-111.08-78.79a39.54,39.54,0,0,1,1.77-4.07c4.7-8.72-2.2-19.62-5.94-38.62s12.77-53.89,12.77-53.89.35-8.84.82-20c8.64-1.88,20.36.69,20.36.69s49.74,14.55,83.58,20c0,0-57.05-1.17-75.29,12.59,0,0,37,19.07,38.19,38.22a70,70,0,0,1-8.44.44c28.13,10.73,60.59,26.42,70.07,44.25C442.71,690.41,426.18,729.94,382.58,706.45Z"/><path class="cls-3" d="M492.53,909.38c-.94,28.51-10.28,70.56-13.55,81.77s-.94,25.23-.94,36.91-3.74,25.7-6.54,36-7.94,5.6-16.35,5.6-11.68-15.41-19.16-32.23c-7-15.79-26-4.42-43.33-1.41-.47-12.49,2.68-26.86,7.36-40.64,9.34-27.57,11-63.55,11-63.55-34.84,16.36-52.07-4.2-52.07-4.2,32.24-3.74,25.7-19.16,25.7-19.16-27.57,11.69-49.53,1.87-40.31-23.23,9.11-24.78,39.52-16.7,40.3-16.49-26.62-16.82-18.22-22.42-18.22-22.42s29.9,16.82,78-6.54c40.94-19.88,44.31-33.32,44.4-36.9.38,5.65,2.48,34.88,5.37,43.6,1,3.15,2.58,11.07,4.19,20.76-4.18.38-7.57,1.68-9.11,4.31C486,877.15,493.46,880.88,492.53,909.38Z"/><path class="cls-4" d="M412.78,607.5a59.77,59.77,0,0,0-5.1,28.42c0,1.47.3,2.86.29,4.35-.4-.62-.76-1.26-1.11-1.92-5.18-9.92-2.78-23.67,5.92-30.85Z"/><path class="cls-4" d="M421.51,616.59c-.23,4.72-1,9.18-1.36,13.78s-.57,8.75,1.36,13.11c-8.34-5.47-5.29-20.16,0-26.89Z"/><path class="cls-4" d="M564.81,583.88a132.6,132.6,0,0,1,3.44,40.34,52.78,52.78,0,0,1-1.32,8.46,10.93,10.93,0,0,1-2.12,4.7c1.31-4.25.53-8.83.53-13.22-.51-13-1.44-27.29-.53-40.28Z"/><path class="cls-4" d="M548.83,597.28c4.35,12,5.79,30.65-1.17,41.89a92,92,0,0,0,1-10.44c.42-10.11-.3-21.32.22-31.45Z"/><path class="cls-4" d="M330.47,604c36,19.64,84.79,44.27,126.49,40.63-40.26,9.16-94.47-17-126.49-40.63Z"/><path class="cls-4" d="M508.88,646.56c48.86-7.39,97.53-19.44,142-41.48,6.35-3.13,12.51-6.63,18.67-10.17-44.24,32.42-106.28,48.85-160.63,51.65Z"/><path d="M850.45,708.47A140,140,0,0,1,791.05,695a144.56,144.56,0,0,1-35.12-22.89c-24.31-21.91-17.08-53.48-16.76-54.81l.09-.38.2-.33c2.16-3.56,53.38-87.24,87.65-107.26,5-2.93,9.55-4.41,13.5-4.41a14.57,14.57,0,0,1,3.13.33c2,.06,13.9.7,29.67,6.88,15.56,6.1,37.93,19,56.15,45.84,17.87,26.35,37.31,60.42,29,90.29-5.35,19.08-21,34.3-47.72,46.53C891,703.88,870.69,708.47,850.45,708.47Z"/><path class="cls-5" d="M909.76,692.59c-46.88,21.42-88.27,13.9-117.67.21a141.67,141.67,0,0,1-34.51-22.48c-23.5-21.18-16-52.41-16-52.41s52.66-86.47,86.79-106.41c5.64-3.3,10.77-4.78,15.08-3.76,0,0,49.5.71,84.08,51.66S980.31,660.35,909.76,692.59Z"/><path d="M741.48,641.64h-.12c-2-.17-3-1.57-4.35-3.51A76.66,76.66,0,0,0,728.43,628c-6.95-7.06-18-7.37-22.16-7.49a5.55,5.55,0,0,1-2.57-.37l-.85-.42-.34-.89c-.25-.64-6.12-15.76-7.68-20.43-1.48-4.44,2.56-12.66,8.88-24.7,1.07-2,2.08-4,2.94-5.69,2.76-5.52,17.36-23.56,44.64-55.16,1.26-1.46,2.1-2.43,2.4-2.79,1.75-2.08,15.56-11.69,24.35-17.54,23-15.32,26.07-15.32,27.21-15.32a3.28,3.28,0,0,1,1.38.29c3.73,1.78,16.68,12.73,23.36,20.21,4.34,4.86,12.34,7.19,15.35,8.07,1.6.47,3.42,1,3.2,3.11a2.49,2.49,0,0,1-2,2.21c-3.76,1.93-31.46,25.67-42,34.67-14.64,12.54-25.77,33.85-33.14,47.94a130.54,130.54,0,0,1-7.1,12.66c-2.84,4-7.08,11.64-10.81,18.38-8.52,15.34-9.63,16.93-11.89,16.93Z"/><path class="cls-7" d="M704.8,617.91c.78.39,16.2-1,25.39,8.33s9.52,12.78,11.38,12.93,14.32-25.23,20.7-34.26,19.94-43.3,40.65-61,41.12-35.05,43-35.2-11.22-2-17.76-9.35-19.31-18.06-22.58-19.62-47.5,29-50,31.93-42.21,48.43-46.73,57.47-13.23,23.83-11.68,28.5S704.8,617.91,704.8,617.91Z"/><path d="M634.84,479.3a8.64,8.64,0,0,1-7.41-4.17c-11.19-16.88-17.68-50.52-17.95-51.94l0-.21L609,401.35l.58-.71c.25-.3,6.23-7.47,13.91-7.47h.47c2,.07,4.48.11,7.46.11,5.09,0,9.85-.11,9.9-.11l.69,0,.59.35c1.14.65,27.91,16.15,32.84,28.29,2.75,6.75-4.95,22-12.38,33.08-3.85,5.73-17.27,24.42-28.17,24.42Z"/><path class="cls-8" d="M641.33,395.64s27.11,15.6,31.78,27.08-32.58,67.72-43.62,51-17.59-51-17.59-51l-.46-20.51s5.6-6.82,12.38-6.57S641.33,395.64,641.33,395.64Z"/><path d="M711.62,621.44a11.6,11.6,0,0,1-4.42-1.28c-9.92-4.44-33.69-21-37.69-25.25a142.66,142.66,0,0,1-9.86-13.09c0,.21-.06.42-.1.63-.9,6-1.94,9.32-4.86,9.32h0c-2.41,0-3.38-2.62-3.75-3.61-3-8-27.33-55.68-39.67-68.95-6.06-6.5-4.09-17.24,5.83-31.91a151,151,0,0,1,15.48-18.92c2.29-4,24.47-42.55,38.71-51.14l.31-.19c7.17-4.33,11.11-6.71,15.93-6.71s10,2.4,19.4,6.77c8.47,3.92,20.11,10.35,32.42,17.16,15.76,8.71,32,17.72,44.46,23.06,26.32,11.34,27.65,21.88,27.65,23.87a2.71,2.71,0,0,1-2.65,2.95,3.41,3.41,0,0,1-1.88-.65,3.52,3.52,0,0,0-2-.68c-2.16,0-7.17,1.87-16.34,14.37-2.35,3.19-4.52,6.08-6.66,8.82-.43.56-.87,1.12-1.3,1.66-6.23,7.93-11.35,13.74-16.31,19.34l-.55.63c-5.76,6.55-10.67,12.21-17,20.37-5.54,7.2-11.27,13.42-16.33,18.91-8.22,8.93-15.31,16.63-14.35,21.46a88.54,88.54,0,0,1,1.25,18.41c-.35,11-2.37,13.38-4.09,14.27A3.51,3.51,0,0,1,711.62,621.44Z"/><path class="cls-9" d="M809,481.2c0,3-4.37-10.08-22.43,14.53-2.36,3.22-4.55,6.11-6.61,8.77l-1.29,1.64c-6.43,8.18-11.59,14-16.78,19.87S751.42,538,744.83,546.5c-15.57,20.25-33,33-31.15,42.37s1.87,28.23-1.56,30c-.57.3-2-.09-3.92-1-9.73-4.36-33.25-20.79-36.88-24.68-4.36-4.68-13.4-18.36-13.4-18.36s-1.55,20.85-4.66,12.44-27.73-56.38-40.19-69.78,21.49-47.65,21.49-47.65,23.68-41.88,38-50.53,14.33-8.8,33.34,0,54.51,30.59,76.93,40.25S809,478.2,809,481.2Z"/><path class="cls-10" d="M809,481.2c0,3-4.37-10.08-22.43,14.53-2.36,3.22-4.55,6.11-6.61,8.77l-1.29,1.64c-9.24-4.84-18-11.37-22.94-17.16-10.28-12,8.1-30-10.28-39.35S716.17,480.16,706,482.34s-27.83,11.52-26,27.46,1,41.68,0,63.88c-.66,15.67,17.48,34.5,28.2,44.23-9.73-4.36-33.25-20.79-36.88-24.68-4.36-4.68-13.4-18.36-13.4-18.36s-1.55,20.85-4.66,12.44-27.73-56.38-40.19-69.78,21.49-47.65,21.49-47.65,23.68-41.88,38-50.53,14.33-8.8,33.34,0,54.51,30.59,76.93,40.25S809,478.2,809,481.2Z"/><path d="M102.7,746.44c-16.38,0-28.77-3-36.82-9-7.07-5.23-12.94-13.14-17.44-23.51a97.2,97.2,0,0,1-5-15C33,657.81,42,592.12,86.11,545.23,128.34,500.4,160,493.7,175.18,493.7a33.31,33.31,0,0,1,9.95,1.22l.39.14.33.25,6,4.7c9.5,7.44,33.85,26.58,54.7,43.66,27.22,22.3,32.23,27.72,33.62,29.86,3.42,5.24,6.54,16.91,5,34-1.76,20-9.6,42.6-22.66,65.26-11,19.14-35.59,37.74-69.15,52.37C162.77,738.46,128.86,746.44,102.7,746.44Z"/><path class="cls-5" d="M260.41,671.51c-29.88,51.84-157.55,90.23-193.06,64C60.52,730.43,54.91,722.66,50.7,713a94.42,94.42,0,0,1-4.89-14.58c-10.68-42.3-.24-106.52,42.09-151.47,58.88-62.5,96.43-49.66,96.43-49.66s2.23,1.73,6,4.69c10.88,8.51,34.57,27.17,54.66,43.63,16.63,13.62,30.79,25.72,33.12,29.29C284.22,584.24,290.29,619.67,260.41,671.51Z"/><path d="M281,629.82c-6.67,0-13.64-19.72-15.29-26.51-2.23-9.18-8.85-17.33-16.52-26.76l-2.94-3.62c-5.29-6.58-6.17-8.85-7.2-11.48a37.8,37.8,0,0,0-4.75-8.74c-4.18-6.18-10.55-9.47-17.29-13-4.45-2.3-9.05-4.68-12.94-8-5.8-4.89-6.91-9.23-7.88-13.06-.7-2.73-1.3-5.09-3.69-7.59-4.13-4.34-12.89-6.46-15.76-7.15-1.11-.27-3.18-.77-2.92-3a2.49,2.49,0,0,1,2.58-2.19c.14,0,.38,0,.72,0,2.18-.24,10.29-7,16.81-13.4a4.52,4.52,0,0,1,.79-1.54c2.76-3.64,14.28-8.4,17.17-8.4a3.08,3.08,0,0,1,.61.05c1.86.33,19.68,8.15,30.13,12.78l.18.08.17.11c1.56,1,38.34,25,50.37,36.74,6.41,6.24,13.86,24.58,18.29,38.38,2.32,7.22,9.62,31.55,6.23,41.45-1.31,3.81-3.89,4.64-5.31,4.8-9,1-19.39,10.43-25,15.49a37,37,0,0,1-4.69,3.91,3.75,3.75,0,0,1-1.91.52Z"/><path class="cls-12" d="M196.3,486.57s-15.11,15-19.31,14.74,10.9,1.43,17.29,8.13,2,12.59,11.37,20.46,23.2,10.37,30.68,21.43,2.65,8.64,11.83,20,17.29,20.45,19.94,31.35,10.12,26.47,13.55,24.45,17.64-18.28,30.62-19.73-8.66-68.73-20.65-80.41-50-36.45-50-36.45S213.9,478.32,212.05,478,195.52,483.79,196.3,486.57Z"/><path d="M313.2,610a11.59,11.59,0,0,1-4.14-.76L306.21,608l1.63-2.33c.18-.6,1-4.21-1.81-16q-.28-1.17-.6-2.43c-1.65-6.45-6.83-16.13-15-28a372.31,372.31,0,0,0-24.65-31.68c-1.45-1.65-3.28-3.6-5.6-5.94-7.15-7.21-16.35-15.45-22.81-21.09-7.48-6.54-15.25-13.06-20.78-17.44-.47-.37-1-.72-1.41-1a11.09,11.09,0,0,0-6-2.05,9.42,9.42,0,0,0-6.07,2.44,15.67,15.67,0,0,0-3,3.4c-.71,1.89-2.51,5.68-5.6,5.68h0c-3.47,0-4.74-4.41-5.23-6.07-2.68-9.24,12.54-19.79,31.19-31.62,2.21-1.4,4.29-2.72,6-3.83,1.45-1,3.06-2,4.8-2.94,10.59-6,23.46-10.62,32.22-13.55a14.07,14.07,0,0,0,2.35-1,23.48,23.48,0,0,0,5.3-4.24c3.13-3.06,6.67-6.51,14.25-6.72,1.22,0,2.5-.09,3.82-.16a180,180,0,0,0,18.26-2l1.31-.22.9,1c1,1.1,25.28,27,30.84,37.27,1,1.85,2.7,4.79,4.66,8.19,2.43,4.23,5.47,9.5,8.46,14.9,14.06,25.39,15,31.8,13.89,34.94-1.66,4.76-5.59,9.16-10.13,14.25-2.81,3.15-6,6.72-8.9,10.71-4.91,6.76-4.11,11.49-2.9,18.65.44,2.61.93,5.56,1.18,8.91,1,13.18-8.35,20.4-13.93,24.71l-.72.56c-1.08.83-2,1.53-2.85,2.13-3.45,2.54-4.74,3.49-7,8.47A9.57,9.57,0,0,1,313.2,610Z"/><path class="cls-9" d="M365.13,514.7c-2.49,7.14-11.21,14-18.69,24.33s-3.12,16.82-2.18,29.19-8.1,18.78-13.71,23.14S323.08,596,320,602.89s-10,4-10,4,2-2.8-1.57-17.77c-.19-.79-.39-1.61-.62-2.48-2-7.71-8.16-18.33-15.35-28.79A376.29,376.29,0,0,0,267.63,526c-1.58-1.81-3.51-3.85-5.69-6.06-6.33-6.37-14.77-14.07-22.94-21.21-8-7-15.66-13.38-20.88-17.52q-.81-.63-1.59-1.14c-6.63-4.35-11.8-2.13-15,.56a17.76,17.76,0,0,0-3.66,4.21s-3.43,9.65-6.23,0,24.92-25.23,36.13-32.71c1.48-1,3-1.93,4.66-2.85,10.63-6.06,23.67-10.64,31.78-13.35a16.48,16.48,0,0,0,2.74-1.17c6.81-3.66,8.17-10.39,18.45-10.66,1.3,0,2.6-.1,3.88-.16a182.2,182.2,0,0,0,18.54-2s25,26.66,30.47,36.76c2.28,4.19,7.72,13.34,13.14,23.11C359,495.53,366.58,510.53,365.13,514.7Z"/><path class="cls-13" d="M365.13,514.7c-2.49,7.14-11.21,14-18.69,24.33s-3.12,16.82-2.18,29.19-8.1,18.78-13.71,23.14S323.08,596,320,602.89s-10,4-10,4,2-2.8-1.57-17.77c-.19-.79-.39-1.61-.62-2.48-2-7.71-8.16-18.33-15.35-28.79A376.29,376.29,0,0,0,267.63,526c-1.58-1.81-3.51-3.85-5.69-6.06-6.33-6.37-14.77-14.07-22.94-21.21-8-7-15.66-13.38-20.88-17.52q-.81-.63-1.59-1.14c-6.63-4.35-11.8-2.13-15,.56a17.76,17.76,0,0,0-3.66,4.21s-3.43,9.65-6.23,0,24.92-25.23,36.13-32.71c1.48-1,3-1.93,4.66-2.85,4.65.93,8.5,2.6,9.83,5.5,4.2,9.19-5.92,10.74,2,17s21.8,18.84,31,23.36,12.31.78,12.15-6.23-.78-21,8.72-16.36,20.25,29,28,33.25,2.07-30.38,9.5-31.63c3.91-.66,11.1,2.5,17.75,7.64C359,495.53,366.58,510.53,365.13,514.7Z"/><path d="M367.7,504.89c-4.55,0-10.6-2.22-18-6.58-15.77-9.32-38.48-60-41.59-67.05-1.56-1-4.8-3.49-5.25-7.42-.4-3.52,1.49-7,5.62-10.45,7-5.76,17.78-7,25.63-7a69.85,69.85,0,0,1,8.58.49l1.55.21,29.8,95.05L373,503.23c-.38.39-1.91,1.66-5.31,1.66Z"/><path class="cls-14" d="M342.38,409.36s-21.56-2.95-32.31,5.93,0,14.25,0,14.25,24.8,57.13,40.9,66.65,20.29,5.3,20.29,5.3Z"/><path d="M475.68,683.11c-7.21,0-19.17-4.7-27.14-13.41a31.37,31.37,0,0,1-7.42-13.21,37.09,37.09,0,0,0-3.34-7.26c-1.46-2.71-3.37-6-5.67-9.65-4.2-6.77-9.64-15-16.62-25.08-2.76-4-5.79-8.35-9.51-13.62-4.2-5.94-8.22-11.56-11.59-16.28l-1.83-2.55c-2-2.81-4.06-5.68-5.44-7.68-1.64-2.35-2.59-3.72-3-5.17-.75-1.84-4.11-9.11-7.66-16.79-3.2-6.93-7.18-15.55-11.37-24.73-19.61-43-29.77-67.61-32-77.51-5-22.58,8-63.06,8.58-64.78l1.53-4.68H598.81l1.93,1.7a116.93,116.93,0,0,1,9.41,9.69c13.27,15.16,34.4,45.64,26.83,79.57-3.92,17.55-13.27,37.7-27.77,59.89-3,4.51-6.08,9.06-9.32,13.52-.91,1.27-1.85,2.53-2.78,3.79-4.26,5.72-8.76,11.43-13.37,17-2,2.45-4,4.76-5.89,6.88-1.73,2-3.54,4-5.37,6-.19.22-.42.46-.65.71l-.11.11c-2.83,3.06-5.62,5.94-8.29,8.56-1.58,1.57-3.15,3.06-4.67,4.44-2,1.87-4.47,4.3-7.21,7.2-12.5,13.28-29.78,34.71-43.66,51.93-18.49,22.94-23.12,28.47-26.14,30.12A12.63,12.63,0,0,1,475.68,683.11Z"/><path class="cls-15" d="M630.36,470.19c-4.15,18.57-14.56,38.9-26.82,57.66-3,4.52-6,9-9.14,13.25q-1.36,1.88-2.73,3.72c-4.38,5.89-8.82,11.48-13.14,16.66-1.95,2.33-3.88,4.59-5.77,6.74s-3.56,4-5.27,5.85c-.25.27-.49.54-.74.8-2.85,3.09-5.57,5.88-8.07,8.34-1.58,1.56-3.08,3-4.48,4.25-2.25,2.06-4.81,4.63-7.58,7.57-23.71,25.18-63.51,78.23-68.11,80.74-3.86,2.1-16.91-1.84-25-10.64a24.92,24.92,0,0,1-5.88-10.39,45.3,45.3,0,0,0-3.93-8.76c-1.6-3-3.6-6.33-5.87-10-4.76-7.67-10.72-16.56-16.79-25.35-3.21-4.66-6.45-9.28-9.56-13.68-4.27-6-8.27-11.64-11.62-16.31-.63-.89-1.24-1.73-1.82-2.54-4.51-6.31-7.41-10.42-7.41-10.74,0-.62-9-19.63-19.41-42.51-13.26-29.07-28.9-64.4-31.52-76.17-4.67-21,8.41-61.21,8.41-61.21h248.1a110.77,110.77,0,0,1,8.8,9.08C617.31,410.57,637.3,439.09,630.36,470.19Z"/><path class="cls-16" d="M466.13,410.38,464,439.59s.2,27.59.54,29.46,2.84.42,5.29,6.93,4.83,23.46,5.07,29.74-.22,42.73.76,43.43,15.71,2.34,26.69,1.64,72.42-13.09,72.42-13.09l-2.34-51.16s-18.92-21.08-18-32.73-.7-51.6-.7-51.6Z"/><path class="cls-17" d="M630.36,470.19c-4.15,18.57-14.56,38.9-26.82,57.66-3,4.52-6,9-9.14,13.25q-1.36,1.88-2.73,3.72c-4.38,5.89-8.82,11.48-13.14,16.66-1.95,2.33-3.88,4.59-5.77,6.74-4.5-8.49,4.18-65.64-5.27-82.77s-6.57-25.87-8.62-36.13S557,404.78,557,404.78l37.4-10.59,10.65,2.38C617.31,410.57,637.3,439.09,630.36,470.19Z"/><path class="cls-18" d="M567.49,574.07c-.25.27-.49.54-.74.8-2.85,3.09-5.57,5.88-8.07,8.34-1.58,1.56-3.08,3-4.48,4.25-2.25,2.06-4.81,4.63-7.58,7.57-36.41,2-100.18,9.41-100.18,9.41l6.22-23.78,106.83-17.33S563.53,568.18,567.49,574.07Z"/><path class="cls-19" d="M594.4,541.1q-1.36,1.88-2.73,3.72c-4.38,5.89-8.82,11.48-13.14,16.66-4.07,4.87-8,9.38-11.78,13.39-2.85,3.09-5.57,5.88-8.07,8.34-42.54,3.3-108.83,8.15-108.83,8.15l-2.8-6.54L445.18,554l140.17-15Z"/><path class="cls-20" d="M603.54,527.85c-3.83,5.84-7.82,11.53-11.87,17-23.21,3.78-61.7,9.28-93.54,10.09-49.21,1.25-90.95-1.24-91.26,0-.21.82-2.35,15.6-7,25.75-.63-.89-1.24-1.73-1.82-2.54-4.51-6.31-7.41-10.42-7.41-10.74,0-.62-9-19.63-19.41-42.51,16.1,7.56,63.65,25.47,140,17.27C559.93,536.91,587.86,531.7,603.54,527.85Z"/><path class="cls-18" d="M425.56,606.62a6.56,6.56,0,0,1-4.48,4c-3.21-4.66-6.45-9.28-9.56-13.68-5.07-7.17-9.78-13.74-13.44-18.85,3.24-16.08,8-42,7.54-52.13-.62-12.73-4.05-34.31-4.67-48s.62-20.86-2.49-33.63S401,400.49,401,400.49l24.61-13S431.16,593.54,425.56,606.62Z"/><path class="cls-21" d="M446.44,646.34c-.44.4-1.39.25-2.7-.36-1.6-3-3.6-6.33-5.87-10-7.28-11.72-17.37-26.31-26.35-39,3.17-21,4-75,4.85-87.11a226.06,226.06,0,0,0-3.74-54.15c-3.74-18.23,0-51.87,0-51.87l29.44-7S450,643.06,446.44,646.34Z"/><path class="cls-18" d="M456.55,600.08l-3,65a24.92,24.92,0,0,1-5.88-10.39c-1-3.76-4.71-10.55-9.8-18.74,1.46-16.12,3.6-43.36,4.2-70,.93-41.58-5.14-97.24-5.61-112.16s-.93-52.3,0-53.24,12.62,6.24,12.62,6.24-.92,56.26,0,60.58,6.54,0,7.47,17.29S456.55,600.08,456.55,600.08Z"/><path class="cls-22" d="M578.53,561.48c-4.07,4.87-8,9.38-11.78,13.39.28-19.64,1-82.19-1.65-91.75C562,471.75,553,468.94,553,468.94c1.87-5.45-2.33-58.4-2.33-58.4s9-5.29,10.74-3.27-1.09,48.74-.31,54.82,8.41,8.26,14.33,20.4C579.94,491.84,579.14,539.86,578.53,561.48Z"/><path d="M626.83,431.63C619.66,437.16,612,442.9,604.54,448c-10.17,7.09-20.59,14.24-32.44,18.2-23.52,8-48.59,11.4-73.39,11.53a268.63,268.63,0,0,1-55.55-5.61c-8.66-2-18.54-4.43-27-6.95-14.86-4.26-29.62-9-44.06-14.53-11.42-4.64-23.12-9.19-33.26-16.31,10.52,6.44,22.29,10.55,33.87,14.65,18.93,6.53,38.29,11.81,57.69,16.74l13.47,3,9.07,1.58a271.51,271.51,0,0,0,100.58-1.88c11.93-2.64,23.92-5.94,34.5-12,13.22-7.64,26.23-16.25,38.83-24.87Z"/><path d="M360.89,501.86c71.62,21.15,160,34.07,231.41,7a190.49,190.49,0,0,0,30.08-15.09A174,174,0,0,1,593,510.51c-69.66,30-162.66,17-232.11-8.65Z"/><path d="M429.38,622.87c17.95-.35,36.51-.08,54.45-.41,14-.47,28.2-.54,42-3.59-23.35,10.18-71,8.16-96.44,4Z"/><path d="M465.43,412.56c-.18,11.12-.48,22.23-.42,33.34,0,5.54,0,11.1.29,16.61.22,2.78.17,6,1.05,8.58,5.14,2.1,6.84,8.14,7.91,13.36,1.64,8.27,2.11,16.73,2.53,25.11,1.36,50,.53,100.11-.94,150.09-.12,4.06-.43,12.58-.61,16.67-.13-4.2-.31-12.49-.38-16.68-.68-29.89-.94-86.19-1.15-116.67-.17-16.62.12-33.28-1.38-49.8-.59-5.24-1.15-11-3.28-15.73-.9-2.06-2.35-3.08-4.23-4.17a3.27,3.27,0,0,1-1.26-2.11c-1.32-8.41-.51-16.87-.35-25.3.54-11.12,1.22-22.22,2.22-33.3Z"/><path d="M381.08,403.84c1.87,10.16,7,41,1.25,49l-1-2.62a9.58,9.58,0,0,1,6,4.3c2.54,4.06,2.12,8.88,1.23,13.26a46.3,46.3,0,0,0-.91,11.79,91,91,0,0,0,2,11.92,112.56,112.56,0,0,1,1.45,31.13c-.69,6.16-1.73,12.66-5.25,17.93a10.21,10.21,0,0,1-4.81,3.89,10.19,10.19,0,0,0,4.19-4.29c5.52-11.15,3.7-29.79,2.1-42-.65-4-1.62-7.9-2.45-12a44.33,44.33,0,0,1,.11-19.08c1.15-4.8,1.4-11.88-4.23-13.67l-2.56-.74,1.6-1.88c1.93-3,2-7.18,2.32-10.74.59-12-.28-24.16-1.08-36.2Z"/><path d="M236.33,465.82c29.78,26.24,60.06,54.63,90.64,79.91-17.27-10.54-33-23.43-48.1-36.81-14.95-13.58-29.43-27.71-42.54-43.1Z"/><path class="cls-4" d="M608.71,531.4a237.17,237.17,0,0,1,22.5,27q5.17,7.11,9.79,14.63c2.89,5.07,6.36,10.17,7.52,16-2.59-5.21-6.58-9.6-9.91-14.36-10.47-14.07-21-28.14-29.9-43.26Z"/><path class="cls-4" d="M318.74,608.26c8.34-3.74,17.14-7.11,24.15-13.06a23.34,23.34,0,0,0,5.68-6.49c3.7-7,2.45-15.57,2.41-23.43,0-4.29,0-8.68,1.61-12.81,1.77-3.92,4.35-7.23,6.73-10.76,2.44-3.37,4.95-6.68,7.7-9.8-3.12,5.38-6.22,10.71-9.13,16.19a41.56,41.56,0,0,0-2.58,5.35c-2.08,7.71-.05,16.16-.48,24.26-.27,5.42-1.41,11.3-5.23,15.46-7.8,8.83-19.92,12.47-30.86,15.09Z"/><path class="cls-4" d="M301,632.32c20.39,15.24,42,29.21,65.65,38.74,23.77,9.06,49,13.9,74.12,17.32,16.81,2.14,34,3.24,50.76,5,9.46.74,18.92,1.23,28.08-.71a43.11,43.11,0,0,0,5.8-1.79,98.39,98.39,0,0,1,41.09-7.39c8.11-1,16.34-4.1,24.24-6.55,8.09-2.65,16.18-5.38,24.41-7.73a73.45,73.45,0,0,0,22.55-10.94c7-4.81,13.16-10.64,19.4-16.44a47.13,47.13,0,0,1,22.36-12,48.24,48.24,0,0,0-21.69,12.69c-11.88,12.17-25.17,24.12-42,28.91-12.19,3.73-24.13,8.4-36.31,12.27-4.62,1.35-9.47,3-14.54,3-12-.4-24,2.14-35.27,6.27a53.15,53.15,0,0,1-12.54,3.77c-17.24,2.47-34.31-.95-51.34-2.24a408.24,408.24,0,0,1-50.79-7c-16.76-3.4-33.38-7.84-49.24-14.33-23.63-10-45-24.7-64.78-40.9Z"/><path class="cls-4" d="M490.18,695.84c.23,34-.06,74,1.21,107.67.78,17.85,1.44,35.85,5,53.39.32,1.42.87,3.79,1.35,5.18a43.6,43.6,0,0,0,1.82,5.06,49.38,49.38,0,0,1-4.16-10c-6.82-24.35-7.52-50-8.33-75.08a783.09,783.09,0,0,1,3.08-86.24Z"/><path class="cls-4" d="M508.88,695.84c-.28,35.95-1.5,72.76-1.33,108.7.08,14.46.25,29,1.55,43.34a85.23,85.23,0,0,0,2.66,16,16.24,16.24,0,0,0,2.26,4.89,16.75,16.75,0,0,1-2.79-4.7,78,78,0,0,1-3.93-15.93c-2.21-14.41-2.88-29-3.25-43.52a881.65,881.65,0,0,1,4.83-108.75Z"/><path class="cls-4" d="M488.74,819.21c30.68,4.69,72.37,2.12,75.67-36.75l.79-6c.16-2,.61-7.18.77-9.11,1.6-27.51-.54-55.09-5.24-82.27a272.65,272.65,0,0,1,9.17,73.22c-.14,4-.23,8.37-.58,12.36l-.49,6.18-.75,6.15c-3.91,41-47.13,44.41-79.34,36.26Z"/><path class="cls-4" d="M575.94,683.11c6.48,34.78,12.58,89.65.83,123.09-8.07,24-35.59,31.42-58.46,29.06a109.71,109.71,0,0,1-26.87-5.8,125.6,125.6,0,0,0,27,4c21.48,1.17,47.61-6,55-28.5,4.48-12.76,5.71-26.42,6.37-39.92,1.09-27.34-1-54.68-3.81-81.92Z"/><path class="cls-4" d="M631.79,664.4c6.36,12.39,12.12,25,18.38,37.41a48.11,48.11,0,0,0,5.2,8.6c6,7.68,14.92,14,24.85,14.82,4.25.24,8.66-1.26,12.77-3.15a81.69,81.69,0,0,0,12-6.91,58.78,58.78,0,0,1-11.12,8.52c-4.16,2.39-8.71,4.41-13.66,4.42-11-.15-21.17-7-27.7-15.48a48.37,48.37,0,0,1-5.44-9.29,341.85,341.85,0,0,1-15.24-38.94Z"/><path class="cls-4" d="M619.15,670.32c6.6,9.4,12.64,19.34,16.66,30.16,2.49,8.07,4.66,16.18,10.35,22.57a55,55,0,0,0,34.26,17.66c6.11.71,12.65,1,18.57-.89l.94-.36.47-.19c.39-.2.92-.53,1.29-.72a69.78,69.78,0,0,0,10.55-8.95,55.55,55.55,0,0,1-9.63,10.17c-.36.23-1.09.77-1.43,1-5.81,3-12.52,3.32-18.9,3.07-17.39-.72-35.62-10.08-43.8-25.92-2.66-5.17-4-11.07-5.4-16.52-3.41-10.76-8.72-21-13.93-31.06Z"/><path class="cls-4" d="M293.14,726.58c7.22,11.82,16.93,9,25-.12,4.2-4.92,5.4-11,7.82-17.08a65.2,65.2,0,0,1,6.36-11.62A69.75,69.75,0,0,0,338,686.42,44,44,0,0,0,341,674.18a26.53,26.53,0,0,1,3.34-12.63,29.77,29.77,0,0,0-1.52,12.66c.17,9-3.07,17.61-7.4,25.32-2.17,3.67-4.49,7.18-5.95,11.22-2.35,5.84-4.12,13-8.84,17.86-9,9.46-21.68,12.16-27.44-2Z"/><path class="cls-4" d="M354.65,667c-3.17,3.85-6.38,8.55-6.56,13.59-.13,2.63,1.49,4.59,2.56,6.87a22,22,0,0,1,2.16,8,12.28,12.28,0,0,1-3.22,9.26,14.21,14.21,0,0,0-3.82,5c-2.77,5.63-3.94,12.51-6.77,18.47-1.91,3.68-5.07,6.62-8,9.47-6.9,6.18-15.07,12.61-24.75,13.06-4.09,0-7.92-1.8-11.66-3.28-2.34-1.14-5-2.24-6.53-4.43,1.79,1.9,4.5,2.61,6.89,3.47,4.79,1.37,9.89,3.15,14.82,1.38,7.26-2.39,13.34-7.45,18.8-12.72,2.59-2.7,5.41-5.25,7.12-8.58,2.7-6,3.89-12.49,6.93-18.41a17,17,0,0,1,4.59-5.74,9.6,9.6,0,0,0,2.7-6.92c0-3.71-1.5-7.36-3.08-10.78-2.38-6.92,3-13.47,7.79-17.8Z"/><path d="M352.36,849.11c13.34,9,28.72,14.83,44,19.58,7.34,2.34,15.81,4.29,23.35,6.06,2.58.49,9.36,1.78,11.86,2.3,5.31.79,10.61,1.79,15.94,2.47,2.67.31,9.31,1.18,12,1.54,5.36.54,10.74,1,16.12,1.69-5.4.15-10.82.15-16.25.12A262,262,0,0,1,419,878.29c-2.79-.67-9.24-2-11.92-2.78l-7.86-2.25a166.75,166.75,0,0,1-26.53-10.59c-7.19-3.79-14.34-8-20.29-13.56Z"/><path class="cls-4" d="M542.05,1052.36c23.15-24.68,57.37-54.43,91.45-60.83,4.57-.87,11.24-1,15.93-1.28,31.3-1.64,64.65-5.12,94.06,8.29a79.2,79.2,0,0,1,25.43,18.72L766,1014.6c-14.7-13.19-34.09-19.76-53.53-21.67-20.89-2.12-41.89-.22-62.83,1-4.5.29-11.18.35-15.56,1.15-32.54,5.82-68.11,35-92,57.27Z"/><path class="cls-23" d="M738.85,823.88a45.94,45.94,0,0,1-1,6.17c-38.31-1.63-106.24,26.71-121.47,27.47-18.68.94-59.8,19.16-68.68,19.63s-14-7.48-15.42-19.63,18.69-9.34,36-8.4,33.17-8,53.73-16.83,39.25-10.74,57.46-19.62c12.37-6,39.41-11.63,55.48-14.6C737.44,805.25,739.8,813.9,738.85,823.88Z"/><path d="M525.22,877.17c1.47,3.26,5.32,4.38,8.49,5.32.39.06,2.95.54,3.41.63a82.58,82.58,0,0,0,11.12.53C570,883,591.18,878,612.6,874.81a217.5,217.5,0,0,1-33,9c-11.25,2.14-22.77,3.54-34.28,2.66a46.22,46.22,0,0,1-11.41-2.17l-.69-.22-.68-.3c-3-1.3-6.54-3.21-7.31-6.65Z"/><path class="cls-3" d="M297.22,847.24c-5.38-6.32-15.94-15.47-25.13-23,0-.29-.06-.56-.1-.81a81.85,81.85,0,0,1-.74-17.45c17.87,13.61,44.36,34.8,45,41.28C317.31,857.06,308,859.86,297.22,847.24Z"/><path class="cls-24" d="M488.8,802.87c0-.61-.06-1-.06-1A3.3,3.3,0,0,1,488.8,802.87Z"/><path d="M528.28,431.71a336.65,336.65,0,0,1-42.37,4.66,289.23,289.23,0,0,1-80.63-7.47A256.79,256.79,0,0,1,288,365.54c-29.79-28.41-51.26-62.77-62.07-99.37l-.08-.28,0-.28c-.44-2.25-9.77-53.09,18.1-79.34-9.78-16.67-39.66-75.72-4.52-123.16C256.9,39.5,279.52,24.7,304.83,20.3c27.49-4.78,56.11,2.92,82.76,22.27,4,2.87,7.84,6,11.62,9.3,6.52-3.3,20.91-9.59,41.74-13.21,29.15-5.07,75.36-5.42,131.19,21.11a188.82,188.82,0,0,1,24.64-14.54,164.92,164.92,0,0,1,44.48-15c34.15-5.94,64.08,2.09,89,23.88,57.22,50.08,25.87,107.71,12.48,132.32-2.08,3.82-4.63,8.52-5.08,10.2.11.72.43,2.25.71,3.63,2.91,14.24,10.66,52.06-5,94.86-19.63,53.74-68.13,94.33-144.16,120.64A391.53,391.53,0,0,1,528.28,431.71Z"/><path class="cls-5" d="M587.27,410.24c-36,12.47-70,18.84-101.62,20.25a282.59,282.59,0,0,1-79-7.31C314.24,401,251.91,333.24,231.6,264.5c0,0-10.33-54,20-77,0,0-45.93-68.93-7.45-120.88,35.09-47.37,90.22-55.42,140-19.28A161.33,161.33,0,0,1,398.36,59s70.53-43.36,174.41,7.58a170.55,170.55,0,0,1,26.62-16.09c30.79-15.21,82.89-30.52,127,8.06,67.39,59,4.65,127.59,5.37,138.21S777.73,344.32,587.27,410.24Z"/><path class="cls-25" d="M710.83,192.05c-34.16-9.52-88-62.05-108.59-83.08,4.73,1.13,12.66,5,25.68,15.7,27.72,22.74,62.71,52.73,82.07,62.07C714.32,188.82,714,190.6,710.83,192.05Z"/><path class="cls-25" d="M373.07,87.21c-19.55,47.64-65.56,75-95.33,88.27C327.36,140.24,371.69,88.83,373.07,87.21Z"/><path class="cls-25" d="M485.13,61.31c4,26.11,11.7,82.08,11.74,127.25.05,42.35-4.93,68.27-7.36,86.7-3.86-18.27-7.76-47.93-7.38-97.73C482.51,128.08,484.09,84.91,485.13,61.31Z"/><path class="cls-25" d="M634.59,313.61c-100,45.9-198.89,23.34-256.28,1.66,20.67,2.87,49.84,6.15,88.86,9C559.3,330.83,583.68,323.67,634.59,313.61Z"/><circle class="cls-26" cx="665.56" cy="119.62" r="18.81"/><ellipse class="cls-4" cx="662.67" cy="114.03" rx="10.03" ry="4.53" transform="translate(-9.74 115.19) rotate(-9.86)"/><circle class="cls-26" cx="315.77" cy="111.8" r="18.81"/><ellipse class="cls-4" cx="312.89" cy="106.22" rx="10.03" ry="4.53" transform="translate(-13.57 55.16) rotate(-9.86)"/><path class="cls-26" d="M661.7,299.45c-83.22,54.25-188.63,54.93-280.06,19a350.56,350.56,0,0,1-36.39-16.56c-5.89-3.1-11.68-6.4-17.26-10A402.75,402.75,0,0,0,382.87,315c93.21,32.14,191.72,31.83,278.83-15.58Z"/><path class="cls-25" d="M551.89,212.2c.27-1.31.12-12.32,6.77-10.91s12.07,15.18,12,19-4,4.47-8.36,1.45S551.23,215.43,551.89,212.2Z"/><path class="cls-25" d="M411.47,220s15.85-12.94,15.93-19,1-9.23.38-15.15-16.69,5.92-19.3,16.93S407.54,216.94,411.47,220Z"/><path class="cls-26" d="M729.66,191.48c-20.37,12.19-60.14-18.31-76-31a415.39,415.39,0,0,1-59.73-60.18c24.81,22.09,53.52,48.91,80,68.55,12.94,9.33,39.6,29.39,55.8,22.67Z"/><path class="cls-26" d="M375.55,80.72c-10.3,40.74-46.68,73.76-86.51,91.87-12.34,5.65-25.28,10.41-38.59,13.11A338.68,338.68,0,0,0,287,168.59c38.62-20.77,71.75-49.63,88.52-87.87Z"/><path class="cls-26" d="M494.79,295.29c-7.64-19.92-11.2-41.13-13.28-62.28-3.92-42.33-2.11-84.92-.3-127.31,1.05-21.18,2.53-42.34,4.83-63.44.25,36.65-.57,89.88-.89,127.08-.32,42.16-.61,84.74,9.64,126Z"/></svg>